<svg width="14" height="20" viewBox="0 0 14 20" fill="none" xmlns="http://www.w3.org/2000/svg">
<path fill-rule="evenodd" clip-rule="evenodd" d="M2 0C0.895431 0 0 0.895428 0 2V17.8098C0 19.5186 2.00445 20.4404 3.30175 19.3281L5.69825 17.2735C6.44728 16.6314 7.55272 16.6314 8.30175 17.2735L10.6982 19.3281C11.9956 20.4404 14 19.5186 14 17.8098V2C14 0.895431 13.1046 0 12 0H2ZM7.87115 4.54558C7.48864 3.86693 6.51136 3.86693 6.12885 4.54558L5.63771 5.41695C5.49501 5.67012 5.24922 5.8487 4.96434 5.90618L3.98385 6.10401C3.22021 6.25809 2.91822 7.18753 3.44545 7.76104L4.1224 8.49741C4.31909 8.71136 4.41297 9.0003 4.3796 9.289L4.26476 10.2826C4.17533 11.0565 4.96596 11.6309 5.67432 11.3067L6.58384 10.8905C6.8481 10.7695 7.1519 10.7695 7.41616 10.8905L8.32569 11.3067C9.03404 11.6309 9.82467 11.0565 9.73524 10.2826L9.6204 9.289C9.58703 9.0003 9.68091 8.71136 9.8776 8.49741L10.5546 7.76104C11.0818 7.18753 10.7798 6.25809 10.0162 6.10401L9.03566 5.90618C8.75078 5.8487 8.50499 5.67012 8.36229 5.41695L7.87115 4.54558Z" fill="white"/>
</svg>
